
<svg xmlns="http://www.w3.org/2000/svg" width="235" height="73" viewBox="0 0 235 73">
  <g id="logo" transform="translate(-274 -47)">
    <g id="logo-color" transform="translate(220.615 -133)">
      <path id="Path_344" data-name="Path 344" d="M9.279-1.71l3.984-14.561h5.385l-6.731,20H6.641l-6.676-20H5.309ZM35.321-4.76H27.738V.021H36.7V3.73H22.917v-20H36.723v3.723H27.738v4.217h7.583ZM48.9-3.345h-2.61V3.73H41.473v-20h7.871a8.786,8.786,0,0,1,5.564,1.578,5.347,5.347,0,0,1,2.006,4.46,6.494,6.494,0,0,1-.845,3.458,6,6,0,0,1-2.644,2.223L57.6,3.524V3.73H52.435Zm-2.61-3.709h3.05a2.737,2.737,0,0,0,2.067-.723,2.8,2.8,0,0,0,.694-2.018,2.828,2.828,0,0,0-.7-2.031,2.712,2.712,0,0,0-2.061-.737h-3.05ZM67.777,3.73H62.969v-20h4.808ZM86.539-4.238H78.763V3.73H73.942v-20h13.38v3.723H78.763v4.6h7.775ZM97.278,3.73H92.47v-20h4.808Zm22.347-6.772A7.3,7.3,0,0,1,118.5.646a6.8,6.8,0,0,1-2.892,2.48A9.842,9.842,0,0,1,111.356,4a7.854,7.854,0,0,1-6.209-2.569q-2.267-2.569-2.267-7.253v-.989a12.107,12.107,0,0,1,1.023-5.145,7.754,7.754,0,0,1,2.947-3.407,8.221,8.221,0,0,1,4.451-1.2,8.621,8.621,0,0,1,5.852,1.916,7.572,7.572,0,0,1,2.514,5.282h-4.808a3.582,3.582,0,0,0-.92-2.624,3.785,3.785,0,0,0-2.638-.8,2.88,2.88,0,0,0-2.638,1.346,8.652,8.652,0,0,0-.879,4.3v1.415a9.574,9.574,0,0,0,.8,4.574A2.941,2.941,0,0,0,111.356.227,3.7,3.7,0,0,0,113.9-.556a3.323,3.323,0,0,0,.934-2.486ZM136.08-.007h-6.608L128.319,3.73h-5.151l7.336-20h4.533l7.391,20h-5.179Zm-5.454-3.723h4.3l-2.157-6.937Zm7.281-17.927a3.8,3.8,0,0,1-1.387,3.05,5.55,5.55,0,0,1-3.7,1.168,5.55,5.55,0,0,1-3.7-1.168,3.8,3.8,0,0,1-1.387-3.05h3.146a1.633,1.633,0,0,0,.515,1.284,2.058,2.058,0,0,0,1.422.46,2.046,2.046,0,0,0,1.408-.446,1.647,1.647,0,0,0,.5-1.3ZM12.163,34.821a2.115,2.115,0,0,0-.824-1.793A10.811,10.811,0,0,0,8.372,31.71a21.034,21.034,0,0,1-3.393-1.367Q1.572,28.5,1.572,25.384a4.83,4.83,0,0,1,.914-2.892,5.959,5.959,0,0,1,2.624-1.985,9.876,9.876,0,0,1,3.84-.714,8.989,8.989,0,0,1,3.819.776,6.081,6.081,0,0,1,2.6,2.191,5.733,5.733,0,0,1,.927,3.214H12.177a2.7,2.7,0,0,0-.865-2.136,3.558,3.558,0,0,0-2.431-.762,3.8,3.8,0,0,0-2.349.639A2.015,2.015,0,0,0,5.693,25.4a1.93,1.93,0,0,0,.982,1.635,11.1,11.1,0,0,0,2.892,1.236,12.494,12.494,0,0,1,5.124,2.624,5.225,5.225,0,0,1,1.607,3.9,4.813,4.813,0,0,1-1.964,4.073,8.6,8.6,0,0,1-5.289,1.477,10.213,10.213,0,0,1-4.2-.845A6.652,6.652,0,0,1,1.95,37.184a5.928,5.928,0,0,1-1-3.407H5.089q0,3.311,3.956,3.311a3.849,3.849,0,0,0,2.294-.6A1.944,1.944,0,0,0,12.163,34.821Zm14.119,5.248H22.161v-20h4.121ZM47.97,23.406H41.844V40.069H37.723V23.406H31.678V20.068H47.97Zm17.2,7.995H57.254v5.357H66.54v3.311H53.133v-20h13.38v3.338H57.254v4.767h7.913Z" transform="translate(140.23 207.656)" fill="#909aaa"/>
      <g id="Group_185" data-name="Group 185" transform="translate(0 -0.486)">
        <g id="Group_184" data-name="Group 184" transform="translate(-2 131.589)">
          <g id="Group_19" data-name="Group 19">
            <circle id="Ellipse_2" data-name="Ellipse 2" cx="4" cy="4" r="4" transform="translate(87.385 54.897)" fill="#fc6e51"/>
            <circle id="Ellipse_3" data-name="Ellipse 3" cx="4" cy="4" r="4" transform="translate(73.385 81.897)" fill="#fc6e51"/>
            <circle id="Ellipse_4" data-name="Ellipse 4" cx="4" cy="4" r="4" transform="translate(60.385 95.897)" fill="#fc6e51"/>
            <circle id="Ellipse_5" data-name="Ellipse 5" cx="4" cy="4" r="4" transform="translate(101.385 81.897)" fill="#fc6e51"/>
            <circle id="Ellipse_6" data-name="Ellipse 6" cx="4" cy="4" r="4" transform="translate(114.385 95.897)" fill="#fc6e51"/>
            <circle id="Ellipse_8" data-name="Ellipse 8" cx="4" cy="4" r="4" transform="translate(73.385 108.897)" fill="#fc6e51"/>
            <circle id="Ellipse_9" data-name="Ellipse 9" cx="1" cy="1" r="1" transform="translate(63.385 57.897)" fill="#909aaa"/>
            <circle id="Ellipse_102" data-name="Ellipse 102" cx="1" cy="1" r="1" transform="translate(76.385 57.897)" fill="#909aaa"/>
            <circle id="Ellipse_10" data-name="Ellipse 10" cx="1" cy="1" r="1" transform="translate(117.385 70.897)" fill="#909aaa"/>
            <circle id="Ellipse_101" data-name="Ellipse 101" cx="1" cy="1" r="1" transform="translate(117.385 57.897)" fill="#909aaa"/>
            <circle id="Ellipse_11" data-name="Ellipse 11" cx="1" cy="1" r="1" transform="translate(104.385 57.897)" fill="#909aaa"/>
            <circle id="Ellipse_12" data-name="Ellipse 12" cx="1" cy="1" r="1" transform="translate(76.385 70.897)" fill="#909aaa"/>
            <circle id="Ellipse_13" data-name="Ellipse 13" cx="1" cy="1" r="1" transform="translate(63.385 84.897)" fill="#909aaa"/>
            <circle id="Ellipse_14" data-name="Ellipse 14" cx="1" cy="1" r="1" transform="translate(104.385 111.897)" fill="#909aaa"/>
            <circle id="Ellipse_99" data-name="Ellipse 99" cx="1" cy="1" r="1" transform="translate(90.385 111.897)" fill="#909aaa"/>
            <circle id="Ellipse_15" data-name="Ellipse 15" cx="1" cy="1" r="1" transform="translate(90.385 98.897)" fill="#909aaa"/>
            <circle id="Ellipse_100" data-name="Ellipse 100" cx="1" cy="1" r="1" transform="translate(104.385 98.897)" fill="#909aaa"/>
            <circle id="Ellipse_98" data-name="Ellipse 98" cx="1" cy="1" r="1" transform="translate(77.385 98.897)" fill="#909aaa"/>
            <circle id="Ellipse_16" data-name="Ellipse 16" cx="1" cy="1" r="1" transform="translate(90.385 85.897)" fill="#909aaa"/>
            <circle id="Ellipse_17" data-name="Ellipse 17" cx="1" cy="1" r="1" transform="translate(117.385 111.897)" fill="#909aaa"/>
            <circle id="Ellipse_18" data-name="Ellipse 18" cx="1" cy="1" r="1" transform="translate(63.385 111.897)" fill="#909aaa"/>
            <circle id="Ellipse_19" data-name="Ellipse 19" cx="3" cy="3" r="3" transform="translate(88.385 68.897)" fill="#fc6e51"/>
            <circle id="Ellipse_20" data-name="Ellipse 20" cx="3" cy="3" r="3" transform="translate(102.385 68.897)" fill="#fc6e51"/>
            <circle id="Ellipse_22" data-name="Ellipse 22" cx="3" cy="3" r="3" transform="translate(61.385 68.897)" fill="#fc6e51"/>
            <circle id="Ellipse_25" data-name="Ellipse 25" cx="3" cy="3" r="3" transform="translate(115.385 82.897)" fill="#fc6e51"/>
          </g>
        </g>
      </g>
    </g>
    <path id="Path_615" data-name="Path 615" d="M0,0H235V73H0Z" transform="translate(274 47)" fill="none" opacity="0.5"/>
  </g>
</svg>
