<svg width="61" height="61" viewBox="0 0 61 61" fill="none" xmlns="http://www.w3.org/2000/svg">
<rect width="61" height="61" rx="9" fill="#F2FBE6"/>
<g clip-path="url(#clip0_1_5586)">
<path d="M20.3867 25.3066H21.48" stroke="#174336" stroke-miterlimit="10"/>
<path d="M17.6533 23.6667H18.7467" stroke="#174336" stroke-miterlimit="10"/>
<path d="M14.92 22.0267H16.0133" stroke="#174336" stroke-miterlimit="10"/>
<path d="M24.76 20.9333H25.8533" stroke="#174336" stroke-miterlimit="10"/>
<path d="M23.12 18.2H24.2133" stroke="#174336" stroke-miterlimit="10"/>
<path d="M21.48 15.4667H22.5733" stroke="#174336" stroke-miterlimit="10"/>
<path d="M30.2267 16.56H31.32" stroke="#174336" stroke-miterlimit="10"/>
<path d="M30.2267 19.2933H31.32" stroke="#174336" stroke-miterlimit="10"/>
<path d="M30.2267 13.8267H31.32" stroke="#174336" stroke-miterlimit="10"/>
<path d="M41.16 25.3066H40.0667" stroke="#174336" stroke-miterlimit="10"/>
<path d="M43.8933 23.6667H42.8" stroke="#174336" stroke-miterlimit="10"/>
<path d="M46.6267 22.0267H45.5333" stroke="#174336" stroke-miterlimit="10"/>
<path d="M36.7867 20.9333H35.6933" stroke="#174336" stroke-miterlimit="10"/>
<path d="M38.4267 18.2H37.3333" stroke="#174336" stroke-miterlimit="10"/>
<path d="M40.0667 15.4667H38.9733" stroke="#174336" stroke-miterlimit="10"/>
<path d="M16.0133 30.7733H17.1067" stroke="#174336" stroke-miterlimit="10"/>
<path d="M18.7467 30.7733H19.84" stroke="#174336" stroke-miterlimit="10"/>
<path d="M13.28 30.7733H14.3733" stroke="#174336" stroke-miterlimit="10"/>
<path d="M20.3867 36.24H21.48" stroke="#174336" stroke-miterlimit="10"/>
<path d="M17.6533 37.88H18.7467" stroke="#174336" stroke-miterlimit="10"/>
<path d="M14.92 39.52H16.0133" stroke="#174336" stroke-miterlimit="10"/>
<path d="M24.76 40.6133H25.8533" stroke="#174336" stroke-miterlimit="10"/>
<path d="M23.12 43.3467H24.2133" stroke="#174336" stroke-miterlimit="10"/>
<path d="M21.48 46.08H22.5733" stroke="#174336" stroke-miterlimit="10"/>
<path d="M30.2267 44.9866H31.32" stroke="#174336" stroke-miterlimit="10"/>
<path d="M30.2267 42.2533H31.32" stroke="#174336" stroke-miterlimit="10"/>
<path d="M30.2267 47.72H31.32" stroke="#174336" stroke-miterlimit="10"/>
<path d="M45.5333 30.7733H44.44" stroke="#174336" stroke-miterlimit="10"/>
<path d="M42.8 30.7733H41.7067" stroke="#174336" stroke-miterlimit="10"/>
<path d="M48.2667 30.7733H47.1733" stroke="#174336" stroke-miterlimit="10"/>
<path d="M41.16 36.24H40.0667" stroke="#174336" stroke-miterlimit="10"/>
<path d="M43.8933 37.88H42.8" stroke="#174336" stroke-miterlimit="10"/>
<path d="M46.6267 39.52H45.5333" stroke="#174336" stroke-miterlimit="10"/>
<path d="M36.7867 40.6133H35.6933" stroke="#174336" stroke-miterlimit="10"/>
<path d="M38.4267 43.3467H37.3333" stroke="#174336" stroke-miterlimit="10"/>
<path d="M40.0667 46.08H38.9733" stroke="#174336" stroke-miterlimit="10"/>
<path d="M33.5067 34.0533C33.5067 31.8666 36.24 31.32 36.24 27.4933C36.24 24.76 33.7931 22.5733 30.7733 22.5733C27.7535 22.5733 25.3067 24.76 25.3067 27.4933C25.3067 31.32 28.04 31.8666 28.04 34.0533" stroke="#A0E45D" stroke-miterlimit="10"/>
<path d="M29.1333 37.88V35.6933" stroke="#A0E45D" stroke-miterlimit="10"/>
<path d="M32.4133 35.6933V37.88" stroke="#A0E45D" stroke-miterlimit="10"/>
<path d="M34.0533 35.6933H27.4933" stroke="#A0E45D" stroke-miterlimit="10"/>
<path d="M34.0533 37.8799H27.4933" stroke="#A0E45D" stroke-miterlimit="10"/>
<path d="M32.4133 37.8799L31.32 38.9733H30.2267L29.1333 37.8799" stroke="#A0E45D" stroke-miterlimit="10"/>
<path d="M30.7733 35.1466V28.04" stroke="#A0E45D" stroke-miterlimit="10"/>
<path d="M30.7733 28.5872C31.0752 28.5872 31.32 28.3424 31.32 28.0405C31.32 27.7386 31.0752 27.4938 30.7733 27.4938C30.4714 27.4938 30.2267 27.7386 30.2267 28.0405C30.2267 28.3424 30.4714 28.5872 30.7733 28.5872Z" stroke="#A0E45D" stroke-miterlimit="10"/>
<path d="M30.7733 30.7739C32.2829 30.7739 33.5067 29.5501 33.5067 28.0405C33.5067 26.5309 32.2829 25.3072 30.7733 25.3072C29.2637 25.3072 28.04 26.5309 28.04 28.0405C28.04 29.5501 29.2637 30.7739 30.7733 30.7739Z" stroke="#A0E45D" stroke-miterlimit="10"/>
</g>
<defs>
<clipPath id="clip0_1_5586">
<rect width="41" height="41" fill="white" transform="translate(10 10)"/>
</clipPath>
</defs>
</svg>
