<svg xmlns="http://www.w3.org/2000/svg" width="62" height="62" viewBox="0 0 62 62">
  <g id="icon-structured-data" transform="translate(6.716 6.706)">
    <ellipse id="Ellipse_32" data-name="Ellipse 32" cx="18.5" cy="18" rx="18.5" ry="18" transform="translate(6.284 7.294)" fill="none" stroke="#909aaa" stroke-miterlimit="10" stroke-width="1"/>
    <circle id="Ellipse_33" data-name="Ellipse 33" cx="24.5" cy="24.5" r="24.5" transform="translate(0.284 0.294)" fill="none" stroke="#909aaa" stroke-miterlimit="10" stroke-width="1"/>
    <line id="Line_54" data-name="Line 54" y2="7" transform="translate(24.284 0.294)" fill="none" stroke="#909aaa" stroke-miterlimit="10" stroke-width="1"/>
    <line id="Line_55" data-name="Line 55" x1="5" y2="5" transform="translate(7.284 37.294)" fill="none" stroke="#909aaa" stroke-miterlimit="10" stroke-width="1"/>
    <line id="Line_56" data-name="Line 56" x2="5" y2="5" transform="translate(7.284 7.294)" fill="none" stroke="#909aaa" stroke-miterlimit="10" stroke-width="1"/>
    <line id="Line_57" data-name="Line 57" x2="1" transform="translate(6.284 12.294)" fill="none" stroke="#909aaa" stroke-miterlimit="10" stroke-width="1"/>
    <line id="Line_58" data-name="Line 58" x2="1" transform="translate(5.284 15.294)" fill="none" stroke="#909aaa" stroke-miterlimit="10" stroke-width="1"/>
    <line id="Line_59" data-name="Line 59" x2="2" transform="translate(3.284 18.294)" fill="none" stroke="#909aaa" stroke-miterlimit="10" stroke-width="1"/>
    <line id="Line_60" data-name="Line 60" x2="2" transform="translate(2.284 21.294)" fill="none" stroke="#909aaa" stroke-miterlimit="10" stroke-width="1"/>
    <line id="Line_61" data-name="Line 61" x2="2" transform="translate(2.284 24.294)" fill="none" stroke="#909aaa" stroke-miterlimit="10" stroke-width="1"/>
    <line id="Line_62" data-name="Line 62" x2="2" transform="translate(2.284 28.294)" fill="none" stroke="#909aaa" stroke-miterlimit="10" stroke-width="1"/>
    <line id="Line_63" data-name="Line 63" x2="2" transform="translate(3.284 31.294)" fill="none" stroke="#909aaa" stroke-miterlimit="10" stroke-width="1"/>
    <line id="Line_64" data-name="Line 64" x2="1" transform="translate(5.284 35.294)" fill="none" stroke="#909aaa" stroke-miterlimit="10" stroke-width="1"/>
    <line id="Line_65" data-name="Line 65" x2="1" transform="translate(6.284 37.294)" fill="none" stroke="#909aaa" stroke-miterlimit="10" stroke-width="1"/>
    <line id="Line_66" data-name="Line 66" x2="6" transform="translate(43.284 24.294)" fill="none" stroke="#909aaa" stroke-miterlimit="10" stroke-width="1"/>
    <line id="Line_67" data-name="Line 67" x2="5" y2="5" transform="translate(37.284 37.294)" fill="none" stroke="#909aaa" stroke-miterlimit="10" stroke-width="1"/>
    <circle id="Ellipse_34" data-name="Ellipse 34" cx="7" cy="7" r="7" transform="translate(18.284 18.294)" fill="none" stroke="#fc6e51" stroke-miterlimit="10" stroke-width="1"/>
    <path id="Path_270" data-name="Path 270" d="M180.541,1568.656a11.99,11.99,0,0,0-.1-1.452l1.486-.929a13.6,13.6,0,0,0-1.175-3.609l-1.74.122a12.135,12.135,0,0,0-1.713-2.343l.658-1.633a13.733,13.733,0,0,0-3.062-2.234l-1.352,1.133a11.954,11.954,0,0,0-2.76-.9l-.423-1.692a12.429,12.429,0,0,0-3.8,0l-.423,1.692a11.948,11.948,0,0,0-2.759.9l-1.353-1.133a13.752,13.752,0,0,0-3.062,2.234l.659,1.633a12.073,12.073,0,0,0-1.714,2.343l-1.74-.122a13.54,13.54,0,0,0-1.175,3.609l1.485.929a11.036,11.036,0,0,0,0,2.9l-1.485.93a13.523,13.523,0,0,0,1.175,3.608l1.74-.121a12.159,12.159,0,0,0,1.713,2.343l-.659,1.632a13.758,13.758,0,0,0,3.062,2.235l1.353-1.134a12.005,12.005,0,0,0,2.759.9l.423,1.691a12.368,12.368,0,0,0,3.8,0l.423-1.691a12.012,12.012,0,0,0,2.76-.9l1.352,1.134a13.74,13.74,0,0,0,3.062-2.235l-.658-1.632a12.192,12.192,0,0,0,1.713-2.343l1.74.121a13.58,13.58,0,0,0,1.175-3.608l-1.486-.93A11.973,11.973,0,0,0,180.541,1568.656Z" transform="translate(-143.58 -1543.699)" fill="none" stroke="#fc6e51" stroke-miterlimit="10" stroke-width="1"/>
    <rect id="Rectangle_97" data-name="Rectangle 97" width="62" height="62" transform="translate(-6.716 -6.706)" fill="none"/>
  </g>
</svg>
