<svg xmlns="http://www.w3.org/2000/svg" width="75" height="75" viewBox="0 0 75 75">
  <g id="icon-marketing" transform="translate(-274 -3374)">
    <g id="icon-marketing-2" data-name="icon-marketing" transform="translate(-660 2928.044)">
      <g id="Group_190" data-name="Group 190" transform="translate(937 478.514)">
        <path id="Path_353" data-name="Path 353" d="M1279.429,839.229a.566.566,0,0,1-.536-.415l-3.819-14.285a.555.555,0,0,1,.4-.683l5.869-1.568a.572.572,0,0,1,.7.389l3.819,14.285a.556.556,0,0,1-.4.683l-5.869,1.568A.986.986,0,0,1,1279.429,839.229Zm-3.136-14.446,3.538,13.2,4.784-1.286-3.538-13.2Z" transform="translate(-1275.054 -822.259)" fill="#909aaa"/>
      </g>
      <g id="Group_191" data-name="Group 191" transform="translate(943.244 464.274)">
        <path id="Path_354" data-name="Path 354" d="M1355.226,744.985h-.027l-29.936-.764a.532.532,0,0,1-.523-.415l-3.069-11.471a.567.567,0,0,1,.255-.63l25.541-15.625a.581.581,0,0,1,.59,0,.559.559,0,0,1,.255.536,41.436,41.436,0,0,0,1.447,14.338,41.9,41.9,0,0,0,5.843,13.039.549.549,0,0,1,.188.415A.569.569,0,0,1,1355.226,744.985Zm-29.521-1.863,28.409.724a46.75,46.75,0,0,1-7.022-26.211l-24.241,14.821Z" transform="translate(-1321.652 -716)" fill="#909aaa"/>
      </g>
      <g id="Group_192" data-name="Group 192" transform="translate(968.813 454.385)">
        <path id="Path_355" data-name="Path 355" d="M1528.88,686.9h0c-5.427,0-11.766-8.442-14.767-19.632-3.337-12.422-1.474-23.357,4.234-24.9a4.97,4.97,0,0,1,1.34-.174c5.427,0,11.779,8.442,14.767,19.618,3.337,12.422,1.474,23.357-4.221,24.9A4.648,4.648,0,0,1,1528.88,686.9Zm-9.193-43.565a3.854,3.854,0,0,0-1.045.134c-4.931,1.327-6.513,12.087-3.444,23.518,2.828,10.533,8.831,18.8,13.682,18.8h0a3.856,3.856,0,0,0,1.045-.134c4.931-1.327,6.5-12.1,3.43-23.518C1530.555,651.594,1524.538,643.339,1519.687,643.339Z" transform="translate(-1512.459 -642.2)" fill="#909aaa"/>
      </g>
      <g id="Group_193" data-name="Group 193" transform="translate(974.624 454.754)">
        <path id="Path_356" data-name="Path 356" d="M1570.254,687.369a.428.428,0,0,1-.188-.04c-4.958-1.822-10.024-9.541-12.61-19.216s-2.064-18.895,1.327-22.955a.561.561,0,0,1,.63-.174c4.958,1.822,10.024,9.554,12.61,19.23s2.064,18.895-1.327,22.941A.564.564,0,0,1,1570.254,687.369ZM1559.373,646.2c-2.881,3.913-3.243,12.7-.844,21.628s7.1,16.349,11.538,18.3c2.881-3.9,3.243-12.677.844-21.615S1563.822,648.146,1559.373,646.2Z" transform="translate(-1555.826 -644.95)" fill="#909aaa"/>
      </g>
      <g id="Group_194" data-name="Group 194" transform="translate(975.601 473.494)">
        <path id="Path_357" data-name="Path 357" d="M1565.054,792.2a.576.576,0,0,1-.536-.389c-.308-.951-.549-1.8-.764-2.573-.228-.831-.429-1.688-.63-2.613a.576.576,0,0,1,.322-.63,13.448,13.448,0,0,1,5.333-1.193c2.251,0,3.792.737,4.127,1.983.255.951-.241,2.01-1.421,2.975a11.357,11.357,0,0,1-4.234,2.05,12.614,12.614,0,0,1-2.171.389Zm-.724-5.36c.161.737.335,1.42.509,2.1.174.643.375,1.327.6,2.09a14.917,14.917,0,0,0,1.541-.308,10.491,10.491,0,0,0,3.806-1.822c.8-.657,1.179-1.327,1.045-1.822-.187-.7-1.407-1.152-3.055-1.152a11.948,11.948,0,0,0-2.975.415A10.031,10.031,0,0,0,1564.33,786.837Z" transform="translate(-1563.113 -784.8)" fill="#909aaa"/>
      </g>
      <g id="Group_195" data-name="Group 195" transform="translate(949.775 491.464)">
        <path id="Path_358" data-name="Path 358" d="M1381.819,939.724a.569.569,0,0,1-.5-.295l-10.868-19.7a.563.563,0,0,1,.013-.563.6.6,0,0,1,.509-.268l6.66.335a.626.626,0,0,1,.469.281l9.514,17.1a.543.543,0,0,1,.04.456.583.583,0,0,1-.308.335l-5.32,2.265A.394.394,0,0,1,1381.819,939.724Zm-9.876-19.645,10.131,18.372,4.275-1.822-9.059-16.281Z" transform="translate(-1370.387 -918.9)" fill="#909aaa"/>
      </g>
      <g id="Group_196" data-name="Group 196" transform="translate(949.556 479.652)">
        <path id="Path_359" data-name="Path 359" d="M1369.31,836.589a.558.558,0,0,1-.134-1.1l17.568-4.717a.561.561,0,1,1,.281,1.085l-17.568,4.717A.6.6,0,0,1,1369.31,836.589Z" transform="translate(-1368.754 -830.754)" fill="#909aaa"/>
      </g>
      <g id="Group_197" data-name="Group 197" transform="translate(996.94 468.798)">
        <path id="Path_360" data-name="Path 360" d="M1722.91,752.427a.558.558,0,0,1-.134-1.1l5.8-1.554a.561.561,0,1,1,.281,1.085l-5.8,1.554A.6.6,0,0,1,1722.91,752.427Z" transform="translate(-1722.354 -749.754)" fill="#fc6e51"/>
      </g>
      <g id="Group_198" data-name="Group 198" transform="translate(998.138 477.474)">
        <path id="Path_361" data-name="Path 361" d="M1737.866,815.626h-6a.563.563,0,0,1,0-1.126h6a.563.563,0,0,1,0,1.126Z" transform="translate(-1731.3 -814.5)" fill="#fc6e51"/>
      </g>
      <g id="Group_199" data-name="Group 199" transform="translate(997.436 484.696)">
        <path id="Path_362" data-name="Path 362" d="M1732.431,871.061c-.054,0-.094-.013-.147-.013l-5.8-1.554a.566.566,0,0,1-.4-.683.577.577,0,0,1,.683-.4l5.8,1.554a.566.566,0,0,1,.4.683A.547.547,0,0,1,1732.431,871.061Z" transform="translate(-1726.061 -868.393)" fill="#fc6e51"/>
      </g>
      <g id="Group_200" data-name="Group 200" transform="translate(989.334 453.956)">
        <path id="Path_363" data-name="Path 363" d="M1666.163,644.36a.591.591,0,0,1-.4-.161.566.566,0,0,1,0-.791l4.248-4.248a.559.559,0,0,1,.791.791l-4.248,4.248A.56.56,0,0,1,1666.163,644.36Z" transform="translate(-1665.6 -639)" fill="#fc6e51"/>
      </g>
      <g id="Group_201" data-name="Group 201" transform="translate(993.932 460.778)">
        <path id="Path_364" data-name="Path 364" d="M1700.473,694.037a.562.562,0,0,1-.281-1.045l5.2-3a.558.558,0,1,1,.563.965l-5.2,3A.563.563,0,0,1,1700.473,694.037Z" transform="translate(-1699.911 -689.911)" fill="#fc6e51"/>
      </g>
    </g>
    <path id="Path_624" data-name="Path 624" d="M0,0H75V75H0Z" transform="translate(274 3374)" fill="none" opacity="0.5"/>
  </g>
</svg>
