<svg width="61" height="61" viewBox="0 0 61 61" fill="none" xmlns="http://www.w3.org/2000/svg">
<rect width="61" height="61" rx="9" fill="#F2FBE6"/>
<g clip-path="url(#clip0_1_10211)">
<path d="M14.0318 37.0751C13.9651 37.074 13.9005 37.0512 13.8477 37.0104C13.7948 36.9695 13.7566 36.9126 13.7388 36.8482L11.6511 29.0391C11.6406 29.0002 11.638 28.9596 11.6433 28.9197C11.6486 28.8798 11.6619 28.8413 11.6822 28.8065C11.7026 28.7718 11.7296 28.7414 11.7618 28.7173C11.794 28.6931 11.8307 28.6756 11.8698 28.6657L15.0782 27.8085C15.1571 27.7869 15.2414 27.797 15.313 27.8367C15.3845 27.8765 15.4376 27.9427 15.4608 28.0212L17.5486 35.8303C17.559 35.8692 17.5616 35.9098 17.5563 35.9497C17.5509 35.9895 17.5376 36.028 17.5173 36.0627C17.497 36.0975 17.4699 36.1278 17.4378 36.152C17.4056 36.1762 17.3689 36.1938 17.3299 36.2037L14.1215 37.0609C14.0921 37.0681 14.0621 37.0729 14.0318 37.0751ZM12.3175 29.1779L14.2517 36.3939L16.8669 35.6909L14.9328 28.4749L12.3175 29.1779Z" fill="#174336"/>
<path d="M33.4074 35.8588H33.3926L17.0276 35.4412C16.9612 35.4417 16.8967 35.4195 16.8447 35.3782C16.7926 35.3369 16.7563 35.2791 16.7417 35.2143L15.064 28.9435C15.0469 28.8787 15.0512 28.8102 15.0763 28.7481C15.1015 28.686 15.1461 28.6337 15.2034 28.5991L29.1658 20.0574C29.2147 20.0286 29.2703 20.0134 29.327 20.0134C29.3838 20.0134 29.4395 20.0286 29.4883 20.0574C29.5367 20.0883 29.5754 20.1321 29.6001 20.1839C29.6248 20.2357 29.6344 20.2935 29.6277 20.3505C29.4316 22.9893 29.6993 25.6421 30.4188 28.1885C31.0675 30.7299 32.148 33.1409 33.613 35.3165C33.6453 35.3448 33.6712 35.3797 33.689 35.4188C33.7067 35.4579 33.7158 35.5004 33.7157 35.5434C33.7163 35.5844 33.7088 35.6251 33.6936 35.6632C33.6784 35.7012 33.6558 35.7359 33.6271 35.7652C33.5984 35.7945 33.5643 35.8179 33.5266 35.834C33.4889 35.85 33.4483 35.8585 33.4074 35.8588ZM17.2692 34.8404L32.7995 35.2362C30.1314 30.9445 28.7956 25.9582 28.9608 20.9075L15.709 29.0096L17.2692 34.8404Z" fill="#174336"/>
<path d="M38.008 39.0436C35.0412 39.0436 31.5759 34.4287 29.9354 28.3115C28.1112 21.5208 29.1296 15.543 32.25 14.6994C32.4887 14.6345 32.7351 14.6025 32.9825 14.6043C35.9493 14.6043 39.4217 19.2193 41.0551 25.3288C42.8793 32.1195 41.8609 38.0973 38.7477 38.9408C38.5075 39.0113 38.2583 39.046 38.008 39.0436ZM32.9825 15.2281C32.7896 15.2262 32.5974 15.2509 32.4112 15.3013C29.7156 16.0268 28.8508 21.9089 30.5285 28.1578C32.0745 33.9159 35.3561 38.4352 38.008 38.4352C38.2009 38.437 38.3931 38.4124 38.5793 38.3619C41.2749 37.6365 42.1326 31.7473 40.4543 25.5054C38.9237 19.743 35.6344 15.2303 32.9825 15.2303V15.2281Z" fill="#174336"/>
<path d="M40.0951 37.9984C40.0596 37.999 40.0245 37.9915 39.9923 37.9765C37.282 36.9805 34.5126 32.7608 33.0989 27.4718C31.6852 22.1828 31.9705 17.1425 33.8243 14.923C33.8645 14.8732 33.9194 14.8372 33.9812 14.8201C34.043 14.8031 34.1085 14.8058 34.1687 14.8279C36.879 15.824 39.6484 20.0508 41.0621 25.3403C42.4758 30.6299 42.1905 35.6696 40.3367 37.8814C40.3079 37.9179 40.2711 37.9473 40.2293 37.9676C40.1875 37.9878 40.1416 37.9984 40.0951 37.9984ZM34.1468 15.4927C32.5719 17.6318 32.374 22.4353 33.6854 27.316C34.9969 32.1966 37.5668 36.2534 39.9929 37.32C41.5678 35.188 41.7657 30.3899 40.4543 25.5038C39.1428 20.6177 36.579 16.5565 34.1468 15.4927Z" fill="#174336"/>
<path d="M33.8033 29.0994C33.7385 29.0984 33.6756 29.0775 33.6232 29.0394C33.5708 29.0013 33.5313 28.948 33.5103 28.8867C33.3419 28.3669 33.2102 27.9027 33.0927 27.4802C32.968 27.0259 32.8582 26.5574 32.7483 26.0517C32.7351 25.9829 32.7453 25.9117 32.7772 25.8494C32.8091 25.787 32.8608 25.737 32.9243 25.7073C33.8412 25.2927 34.8335 25.0707 35.8397 25.0552C37.0702 25.0552 37.9126 25.4581 38.0958 26.1392C38.2352 26.6591 37.964 27.238 37.3189 27.7656C36.6341 28.2966 35.8456 28.6783 35.0043 28.8862C34.6157 28.9916 34.2186 29.0628 33.8175 29.0989L33.8033 29.0994ZM33.4075 26.1693C33.4955 26.5722 33.5907 26.9455 33.6858 27.3173C33.7809 27.6688 33.8908 28.0427 34.0138 28.4598C34.2973 28.4185 34.5785 28.3623 34.8562 28.2914C35.61 28.1038 36.3179 27.7649 36.9368 27.2954C37.3742 26.9363 37.5814 26.57 37.5081 26.2994C37.4059 25.9167 36.7389 25.6696 35.838 25.6696C35.2885 25.6765 34.7421 25.7528 34.2117 25.8965C33.9371 25.966 33.6682 26.0566 33.4075 26.1676V26.1693Z" fill="#174336"/>
<path d="M24.8733 46.2614C24.8175 46.2615 24.7627 46.2466 24.7146 46.2182C24.6665 46.1899 24.6269 46.1491 24.6 46.1001L18.6589 35.3308C18.6329 35.2834 18.6199 35.23 18.6212 35.1759C18.6224 35.1219 18.6379 35.0692 18.666 35.023C18.6963 34.9772 18.7378 34.9398 18.7864 34.9142C18.835 34.8886 18.8893 34.8757 18.9442 34.8765L22.585 35.0596C22.6366 35.0642 22.6864 35.0804 22.7309 35.107C22.7753 35.1336 22.8131 35.1699 22.8414 35.2132L28.0424 44.5613C28.0639 44.5987 28.0771 44.6404 28.0809 44.6835C28.0846 44.7265 28.079 44.7699 28.0643 44.8105C28.0499 44.8508 28.0276 44.8877 27.9987 44.9192C27.9697 44.9507 27.9348 44.976 27.8959 44.9937L24.9876 46.2318C24.953 46.2521 24.9134 46.2624 24.8733 46.2614ZM19.4745 35.5221L25.0127 45.5655L27.3498 44.5695L22.3975 35.6692L19.4745 35.5221Z" fill="#174336"/>
<path d="M18.8082 31.6101C18.7336 31.6103 18.6615 31.5831 18.6055 31.5337C18.5496 31.4843 18.5137 31.4161 18.5047 31.342C18.4957 31.2679 18.5141 31.1931 18.5565 31.1317C18.599 31.0703 18.6625 31.0266 18.735 31.0088L28.3388 28.4302C28.3784 28.4179 28.4201 28.4139 28.4613 28.4182C28.5026 28.4225 28.5426 28.4351 28.5788 28.4554C28.615 28.4756 28.6467 28.5029 28.6721 28.5357C28.6974 28.5685 28.7159 28.6062 28.7263 28.6463C28.7367 28.6864 28.7388 28.7283 28.7325 28.7693C28.7263 28.8103 28.7118 28.8496 28.69 28.8848C28.6681 28.9201 28.6394 28.9505 28.6054 28.9743C28.5714 28.9981 28.533 29.0148 28.4924 29.0233L18.8886 31.6019C18.8622 31.608 18.8353 31.6107 18.8082 31.6101Z" fill="#174336"/>
<path d="M44.7116 23.9482C44.6369 23.9484 44.5648 23.9212 44.5088 23.8717C44.4529 23.8223 44.417 23.7541 44.408 23.68C44.399 23.6059 44.4174 23.5311 44.4599 23.4697C44.5023 23.4083 44.5658 23.3646 44.6383 23.3469L47.809 22.4973C47.8486 22.4851 47.8903 22.481 47.9315 22.4853C47.9727 22.4896 48.0127 22.5023 48.0489 22.5225C48.0851 22.5427 48.1169 22.57 48.1422 22.6029C48.1676 22.6357 48.186 22.6733 48.1964 22.7134C48.2068 22.7536 48.2089 22.7954 48.2027 22.8364C48.1965 22.8774 48.182 22.9167 48.1601 22.952C48.1383 22.9872 48.1095 23.0177 48.0755 23.0415C48.0416 23.0653 48.0032 23.0819 47.9626 23.0904L44.7919 23.94C44.7656 23.946 44.7386 23.9488 44.7116 23.9482Z" fill="#A0E45D"/>
<path d="M48.6517 27.8453H45.3717C45.2901 27.8453 45.2118 27.8129 45.1541 27.7551C45.0964 27.6974 45.064 27.6191 45.064 27.5375C45.064 27.4559 45.0964 27.3776 45.1541 27.3199C45.2118 27.2622 45.2901 27.2297 45.3717 27.2297H48.6517C48.7334 27.2297 48.8117 27.2622 48.8694 27.3199C48.9271 27.3776 48.9595 27.4559 48.9595 27.5375C48.9595 27.6191 48.9271 27.6974 48.8694 27.7551C48.8117 27.8129 48.7334 27.8453 48.6517 27.8453Z" fill="#A0E45D"/>
<path d="M48.161 32.6361C48.1315 32.6361 48.1097 32.629 48.0807 32.629L44.91 31.7795C44.832 31.7582 44.7654 31.7072 44.7246 31.6374C44.6837 31.5676 44.6718 31.4846 44.6913 31.4061C44.714 31.3289 44.7652 31.2633 44.8346 31.2227C44.904 31.182 44.9863 31.1694 45.0647 31.1875L48.2354 32.037C48.3134 32.0583 48.38 32.1093 48.4208 32.1791C48.4617 32.2489 48.4736 32.3319 48.4541 32.4104C48.4376 32.4754 48.3998 32.533 48.3466 32.574C48.2935 32.6149 48.2281 32.6368 48.161 32.6361Z" fill="#A0E45D"/>
<path d="M40.5572 17.3033C40.4758 17.3026 40.3977 17.2711 40.3385 17.2153C40.282 17.1575 40.2505 17.0799 40.2505 16.9991C40.2505 16.9183 40.282 16.8407 40.3385 16.7829L42.6608 14.4606C42.6892 14.4323 42.7229 14.4097 42.76 14.3944C42.7971 14.379 42.8368 14.3711 42.877 14.3711C42.9171 14.3711 42.9569 14.379 42.994 14.3944C43.0311 14.4097 43.0648 14.4323 43.0932 14.4606C43.1216 14.489 43.1441 14.5227 43.1595 14.5598C43.1748 14.5969 43.1827 14.6367 43.1827 14.6769C43.1827 14.717 43.1748 14.7568 43.1595 14.7939C43.1441 14.831 43.1216 14.8647 43.0932 14.8931L40.7709 17.2153C40.7139 17.2714 40.6372 17.303 40.5572 17.3033Z" fill="#A0E45D"/>
<path d="M43.0704 20.3581C43.0034 20.3573 42.9385 20.3347 42.8856 20.2937C42.8326 20.2526 42.7945 20.1954 42.7771 20.1307C42.7597 20.066 42.764 19.9973 42.7892 19.9353C42.8144 19.8732 42.8592 19.8211 42.9168 19.7868L45.7594 18.1468C45.7941 18.1266 45.8323 18.1134 45.8721 18.108C45.9118 18.1026 45.9523 18.1051 45.9911 18.1153C46.0298 18.1255 46.0662 18.1432 46.0982 18.1675C46.1301 18.1918 46.1569 18.2221 46.1771 18.2567C46.1973 18.2913 46.2105 18.3296 46.2159 18.3693C46.2214 18.4091 46.2189 18.4495 46.2087 18.4883C46.1985 18.5271 46.1807 18.5635 46.1564 18.5954C46.1322 18.6273 46.1018 18.6541 46.0672 18.6743L43.2246 20.3143C43.1779 20.3423 43.1248 20.3574 43.0704 20.3581Z" fill="#A0E45D"/>
</g>
<defs>
<clipPath id="clip0_1_10211">
<rect width="41" height="41" fill="white" transform="translate(10 10)"/>
</clipPath>
</defs>
</svg>
